# xmcd CD database file
#
# Track frame offsets:
#	150
#	14417
#	28135
#	41582
#	60570
#	75555
#	90192
#	105010
#	123027
#	138050
#	149007
#
# Disc length: 2140 seconds
#
# Revision: 2
# Processed by: cddbd v1.4PL0 Copyright (c) Steve Scherf et al.
# Submitted via: CDex 1.50Beta6
#
DISCID=7c085a0b
DTITLE=Lyle Lovett - Pontiac
DYEAR=1987
DGENRE=Country
TTITLE0=If I Had a Boat
TTITLE1=Give Back My Heart
TTITLE2=I Loved You Yesterday
TTITLE3=Walk Through the Bottomland
TTITLE4=L.A. County
TTITLE5=She's No Lady
TTITLE6=M-O-N-E-Y
TTITLE7=Black and Blue
TTITLE8=Simple Song
TTITLE9=Pontiac
TTITLE10=She's Hot To Go
EXTD=YEAR: 1987
EXTT0=
EXTT1=
EXTT2=
EXTT3=
EXTT4=
EXTT5=
EXTT6=
EXTT7=
EXTT8=
EXTT9=
EXTT10=
PLAYORDER=
